<svg width="150" height="100" viewBox="0 0 150 100" fill="none" xmlns="http://www.w3.org/2000/svg">
  <defs>
    <linearGradient id="chartGrad" x1="0%" y1="0%" x2="100%" y2="100%">
      <stop offset="0%" style="stop-color:#06B6D4;stop-opacity:1" />
      <stop offset="100%" style="stop-color:#3B82F6;stop-opacity:1" />
    </linearGradient>
  </defs>
  
  <!-- Chart bars -->
  <rect x="10" y="60" width="12" height="30" rx="2" fill="url(#chartGrad)" opacity="0.7"/>
  <rect x="30" y="45" width="12" height="45" rx="2" fill="url(#chartGrad)" opacity="0.8"/>
  <rect x="50" y="30" width="12" height="60" rx="2" fill="url(#chartGrad)" opacity="0.9"/>
  <rect x="70" y="40" width="12" height="50" rx="2" fill="url(#chartGrad)" opacity="0.8"/>
  <rect x="90" y="25" width="12" height="65" rx="2" fill="url(#chartGrad)" opacity="0.9"/>
  <rect x="110" y="35" width="12" height="55" rx="2" fill="url(#chartGrad)" opacity="0.8"/>
  <rect x="130" y="20" width="12" height="70" rx="2" fill="url(#chartGrad)" opacity="1"/>
  
  <!-- Trend arrow -->
  <path d="M20 50 L40 35 L60 25 L80 30 L100 20 L120 25 L140 15" stroke="#EC4899" stroke-width="3" fill="none" opacity="0.9"/>
  <path d="M135 10 L145 15 L140 20 Z" fill="#EC4899" opacity="0.9"/>
</svg>
